<mxfile host="app.diagrams.net" modified="2023-10-24T16:20:30.959Z" agent="Mozilla/5.0 (Windows NT 10.0; Win64; x64) AppleWebKit/537.36 (KHTML, like Gecko) Chrome/117.0.0.0 Safari/537.36 OPR/103.0.0.0" etag="3RyPS7pLdb-okSctniUX" version="22.0.6" type="github">
  <diagram name="Page-1" id="_arYjchhyoQiimCo3SDj">
    <mxGraphModel dx="1288" dy="525" grid="1" gridSize="10" guides="1" tooltips="1" connect="1" arrows="1" fold="1" page="1" pageScale="1" pageWidth="850" pageHeight="1100" math="0" shadow="0">
      <root>
        <mxCell id="0" />
        <mxCell id="1" parent="0" />
        <mxCell id="Dp8rsfMs7h5FS1OS1o7N-1" value="Product" style="html=1;dropTarget=0;whiteSpace=wrap;" parent="1" vertex="1">
          <mxGeometry x="120" y="20" width="709" height="500" as="geometry" />
        </mxCell>
        <mxCell id="Dp8rsfMs7h5FS1OS1o7N-2" value="" style="shape=module;jettyWidth=8;jettyHeight=4;" parent="Dp8rsfMs7h5FS1OS1o7N-1" vertex="1">
          <mxGeometry x="1" width="20" height="20" relative="1" as="geometry">
            <mxPoint x="-27" y="7" as="offset" />
          </mxGeometry>
        </mxCell>
        <mxCell id="Dp8rsfMs7h5FS1OS1o7N-8" value="" style="rounded=0;whiteSpace=wrap;html=1;" parent="1" vertex="1">
          <mxGeometry x="111" y="80" width="10" height="20" as="geometry" />
        </mxCell>
        <mxCell id="Dp8rsfMs7h5FS1OS1o7N-11" value="" style="rounded=0;orthogonalLoop=1;jettySize=auto;html=1;endArrow=halfCircle;endFill=0;endSize=6;strokeWidth=1;sketch=0;fontSize=12;curved=1;exitX=0;exitY=0.5;exitDx=0;exitDy=0;" parent="1" source="Dp8rsfMs7h5FS1OS1o7N-8" edge="1">
          <mxGeometry relative="1" as="geometry">
            <mxPoint x="435" y="275" as="sourcePoint" />
            <mxPoint x="20" y="90" as="targetPoint" />
          </mxGeometry>
        </mxCell>
        <mxCell id="Dp8rsfMs7h5FS1OS1o7N-12" value="" style="ellipse;whiteSpace=wrap;html=1;align=center;aspect=fixed;fillColor=none;strokeColor=none;resizable=0;perimeter=centerPerimeter;rotatable=0;allowArrows=0;points=[];outlineConnect=1;" parent="1" vertex="1">
          <mxGeometry x="410" y="270" width="10" height="10" as="geometry" />
        </mxCell>
        <mxCell id="Dp8rsfMs7h5FS1OS1o7N-15" value="data loader&lt;br&gt;" style="html=1;dropTarget=0;whiteSpace=wrap;" parent="1" vertex="1">
          <mxGeometry x="170" y="60" width="180" height="90" as="geometry" />
        </mxCell>
        <mxCell id="Dp8rsfMs7h5FS1OS1o7N-16" value="" style="shape=module;jettyWidth=8;jettyHeight=4;" parent="Dp8rsfMs7h5FS1OS1o7N-15" vertex="1">
          <mxGeometry x="1" width="20" height="20" relative="1" as="geometry">
            <mxPoint x="-40" y="5" as="offset" />
          </mxGeometry>
        </mxCell>
        <mxCell id="Dp8rsfMs7h5FS1OS1o7N-17" value="" style="endArrow=none;html=1;rounded=0;exitX=1;exitY=0.5;exitDx=0;exitDy=0;entryX=0;entryY=0.5;entryDx=0;entryDy=0;" parent="1" source="Dp8rsfMs7h5FS1OS1o7N-8" target="Dp8rsfMs7h5FS1OS1o7N-18" edge="1">
          <mxGeometry width="50" height="50" relative="1" as="geometry">
            <mxPoint x="400" y="300" as="sourcePoint" />
            <mxPoint x="450" y="250" as="targetPoint" />
          </mxGeometry>
        </mxCell>
        <mxCell id="Dp8rsfMs7h5FS1OS1o7N-18" value="" style="rounded=0;whiteSpace=wrap;html=1;" parent="1" vertex="1">
          <mxGeometry x="160" y="85" width="20" height="10" as="geometry" />
        </mxCell>
        <mxCell id="Dp8rsfMs7h5FS1OS1o7N-20" value="Splitter" style="html=1;dropTarget=0;whiteSpace=wrap;" parent="1" vertex="1">
          <mxGeometry x="510" y="70" width="100" height="60" as="geometry" />
        </mxCell>
        <mxCell id="Dp8rsfMs7h5FS1OS1o7N-21" value="" style="shape=module;jettyWidth=8;jettyHeight=4;" parent="Dp8rsfMs7h5FS1OS1o7N-20" vertex="1">
          <mxGeometry x="1" width="20" height="20" relative="1" as="geometry">
            <mxPoint x="-27" y="7" as="offset" />
          </mxGeometry>
        </mxCell>
        <mxCell id="Dp8rsfMs7h5FS1OS1o7N-23" value="" style="rounded=0;whiteSpace=wrap;html=1;" parent="1" vertex="1">
          <mxGeometry x="500" y="85" width="20" height="10" as="geometry" />
        </mxCell>
        <mxCell id="Dp8rsfMs7h5FS1OS1o7N-25" value="" style="rounded=0;whiteSpace=wrap;html=1;" parent="1" vertex="1">
          <mxGeometry x="340" y="85" width="20" height="10" as="geometry" />
        </mxCell>
        <mxCell id="Dp8rsfMs7h5FS1OS1o7N-32" value="" style="rounded=0;orthogonalLoop=1;jettySize=auto;html=1;endArrow=halfCircle;endFill=0;endSize=6;strokeWidth=1;sketch=0;exitX=0;exitY=0.75;exitDx=0;exitDy=0;" parent="1" source="Dp8rsfMs7h5FS1OS1o7N-23" target="Dp8rsfMs7h5FS1OS1o7N-34" edge="1">
          <mxGeometry relative="1" as="geometry">
            <mxPoint x="440" y="275" as="sourcePoint" />
          </mxGeometry>
        </mxCell>
        <mxCell id="Dp8rsfMs7h5FS1OS1o7N-33" value="" style="rounded=0;orthogonalLoop=1;jettySize=auto;html=1;endArrow=oval;endFill=0;sketch=0;sourcePerimeterSpacing=0;targetPerimeterSpacing=0;endSize=10;exitX=1;exitY=0.5;exitDx=0;exitDy=0;" parent="1" source="Dp8rsfMs7h5FS1OS1o7N-25" target="Dp8rsfMs7h5FS1OS1o7N-34" edge="1">
          <mxGeometry relative="1" as="geometry">
            <mxPoint x="400" y="275" as="sourcePoint" />
          </mxGeometry>
        </mxCell>
        <mxCell id="Dp8rsfMs7h5FS1OS1o7N-34" value="" style="ellipse;whiteSpace=wrap;html=1;align=center;aspect=fixed;fillColor=none;strokeColor=none;resizable=0;perimeter=centerPerimeter;rotatable=0;allowArrows=0;points=[];outlineConnect=1;" parent="1" vertex="1">
          <mxGeometry x="425" y="85" width="10" height="10" as="geometry" />
        </mxCell>
        <mxCell id="Dp8rsfMs7h5FS1OS1o7N-41" value="EDA" style="html=1;dropTarget=0;whiteSpace=wrap;" parent="1" vertex="1">
          <mxGeometry x="210" y="260" width="110" height="70" as="geometry" />
        </mxCell>
        <mxCell id="Dp8rsfMs7h5FS1OS1o7N-42" value="" style="shape=module;jettyWidth=8;jettyHeight=4;" parent="Dp8rsfMs7h5FS1OS1o7N-41" vertex="1">
          <mxGeometry x="1" width="20" height="20" relative="1" as="geometry">
            <mxPoint x="-27" y="7" as="offset" />
          </mxGeometry>
        </mxCell>
        <mxCell id="Dp8rsfMs7h5FS1OS1o7N-43" value="" style="rounded=0;whiteSpace=wrap;html=1;" parent="1" vertex="1">
          <mxGeometry x="230" y="250" width="10" height="20" as="geometry" />
        </mxCell>
        <mxCell id="Dp8rsfMs7h5FS1OS1o7N-46" value="" style="rounded=0;whiteSpace=wrap;html=1;" parent="1" vertex="1">
          <mxGeometry x="230" y="140" width="10" height="20" as="geometry" />
        </mxCell>
        <mxCell id="Dp8rsfMs7h5FS1OS1o7N-48" value="" style="rounded=0;orthogonalLoop=1;jettySize=auto;html=1;endArrow=halfCircle;endFill=0;endSize=6;strokeWidth=1;sketch=0;exitX=0.5;exitY=1;exitDx=0;exitDy=0;" parent="1" source="Dp8rsfMs7h5FS1OS1o7N-46" edge="1">
          <mxGeometry relative="1" as="geometry">
            <mxPoint x="440" y="245" as="sourcePoint" />
            <mxPoint x="235" y="190" as="targetPoint" />
          </mxGeometry>
        </mxCell>
        <mxCell id="Dp8rsfMs7h5FS1OS1o7N-49" value="" style="rounded=0;orthogonalLoop=1;jettySize=auto;html=1;endArrow=oval;endFill=0;sketch=0;sourcePerimeterSpacing=0;targetPerimeterSpacing=0;endSize=10;exitX=0.5;exitY=0;exitDx=0;exitDy=0;" parent="1" source="Dp8rsfMs7h5FS1OS1o7N-43" edge="1">
          <mxGeometry relative="1" as="geometry">
            <mxPoint x="232.5" y="250" as="sourcePoint" />
            <mxPoint x="235" y="190" as="targetPoint" />
          </mxGeometry>
        </mxCell>
        <mxCell id="Dp8rsfMs7h5FS1OS1o7N-50" value="" style="ellipse;whiteSpace=wrap;html=1;align=center;aspect=fixed;fillColor=none;strokeColor=none;resizable=0;perimeter=centerPerimeter;rotatable=0;allowArrows=0;points=[];outlineConnect=1;" parent="1" vertex="1">
          <mxGeometry x="230" y="210" width="10" height="10" as="geometry" />
        </mxCell>
        <mxCell id="Dp8rsfMs7h5FS1OS1o7N-52" value="Pre-processor" style="html=1;dropTarget=0;whiteSpace=wrap;" parent="1" vertex="1">
          <mxGeometry x="510" y="260" width="100" height="70" as="geometry" />
        </mxCell>
        <mxCell id="Dp8rsfMs7h5FS1OS1o7N-53" value="" style="shape=module;jettyWidth=8;jettyHeight=4;" parent="Dp8rsfMs7h5FS1OS1o7N-52" vertex="1">
          <mxGeometry x="1" width="20" height="20" relative="1" as="geometry">
            <mxPoint x="-27" y="7" as="offset" />
          </mxGeometry>
        </mxCell>
        <mxCell id="Dp8rsfMs7h5FS1OS1o7N-57" value="" style="rounded=0;whiteSpace=wrap;html=1;" parent="1" vertex="1">
          <mxGeometry x="520" y="120" width="10" height="20" as="geometry" />
        </mxCell>
        <mxCell id="Dp8rsfMs7h5FS1OS1o7N-58" value="" style="rounded=0;whiteSpace=wrap;html=1;" parent="1" vertex="1">
          <mxGeometry x="590" y="120" width="10" height="20" as="geometry" />
        </mxCell>
        <mxCell id="Dp8rsfMs7h5FS1OS1o7N-59" value="" style="rounded=0;whiteSpace=wrap;html=1;" parent="1" vertex="1">
          <mxGeometry x="520" y="250" width="10" height="20" as="geometry" />
        </mxCell>
        <mxCell id="Dp8rsfMs7h5FS1OS1o7N-60" value="" style="rounded=0;orthogonalLoop=1;jettySize=auto;html=1;endArrow=halfCircle;endFill=0;endSize=6;strokeWidth=1;sketch=0;" parent="1" target="Dp8rsfMs7h5FS1OS1o7N-62" edge="1">
          <mxGeometry relative="1" as="geometry">
            <mxPoint x="525" y="140" as="sourcePoint" />
          </mxGeometry>
        </mxCell>
        <mxCell id="Dp8rsfMs7h5FS1OS1o7N-61" value="" style="rounded=0;orthogonalLoop=1;jettySize=auto;html=1;endArrow=oval;endFill=0;sketch=0;sourcePerimeterSpacing=0;targetPerimeterSpacing=0;endSize=10;" parent="1" target="Dp8rsfMs7h5FS1OS1o7N-62" edge="1">
          <mxGeometry relative="1" as="geometry">
            <mxPoint x="525" y="250" as="sourcePoint" />
          </mxGeometry>
        </mxCell>
        <mxCell id="Dp8rsfMs7h5FS1OS1o7N-62" value="" style="ellipse;whiteSpace=wrap;html=1;align=center;aspect=fixed;fillColor=none;strokeColor=none;resizable=0;perimeter=centerPerimeter;rotatable=0;allowArrows=0;points=[];outlineConnect=1;" parent="1" vertex="1">
          <mxGeometry x="520" y="200" width="10" height="10" as="geometry" />
        </mxCell>
        <mxCell id="Dp8rsfMs7h5FS1OS1o7N-66" value="Model" style="html=1;dropTarget=0;whiteSpace=wrap;" parent="1" vertex="1">
          <mxGeometry x="630" y="320" width="180" height="90" as="geometry" />
        </mxCell>
        <mxCell id="Dp8rsfMs7h5FS1OS1o7N-67" value="" style="shape=module;jettyWidth=8;jettyHeight=4;" parent="Dp8rsfMs7h5FS1OS1o7N-66" vertex="1">
          <mxGeometry x="1" width="20" height="20" relative="1" as="geometry">
            <mxPoint x="-27" y="7" as="offset" />
          </mxGeometry>
        </mxCell>
        <mxCell id="Dp8rsfMs7h5FS1OS1o7N-69" value="" style="rounded=0;whiteSpace=wrap;html=1;" parent="1" vertex="1">
          <mxGeometry x="645" y="310" width="10" height="20" as="geometry" />
        </mxCell>
        <mxCell id="Dp8rsfMs7h5FS1OS1o7N-70" value="" style="rounded=0;orthogonalLoop=1;jettySize=auto;html=1;endArrow=halfCircle;endFill=0;endSize=6;strokeWidth=1;sketch=0;exitX=0.5;exitY=1;exitDx=0;exitDy=0;" parent="1" source="Dp8rsfMs7h5FS1OS1o7N-58" edge="1">
          <mxGeometry relative="1" as="geometry">
            <mxPoint x="600" y="325" as="sourcePoint" />
            <mxPoint x="650" y="240" as="targetPoint" />
            <Array as="points">
              <mxPoint x="595" y="190" />
              <mxPoint x="650" y="190" />
            </Array>
          </mxGeometry>
        </mxCell>
        <mxCell id="Dp8rsfMs7h5FS1OS1o7N-71" value="" style="rounded=0;orthogonalLoop=1;jettySize=auto;html=1;endArrow=oval;endFill=0;sketch=0;sourcePerimeterSpacing=0;targetPerimeterSpacing=0;endSize=10;exitX=0.5;exitY=0;exitDx=0;exitDy=0;" parent="1" source="Dp8rsfMs7h5FS1OS1o7N-69" edge="1">
          <mxGeometry relative="1" as="geometry">
            <mxPoint x="560" y="325" as="sourcePoint" />
            <mxPoint x="650" y="240" as="targetPoint" />
          </mxGeometry>
        </mxCell>
        <mxCell id="Dp8rsfMs7h5FS1OS1o7N-72" value="" style="ellipse;whiteSpace=wrap;html=1;align=center;aspect=fixed;fillColor=none;strokeColor=none;resizable=0;perimeter=centerPerimeter;rotatable=0;allowArrows=0;points=[];outlineConnect=1;" parent="1" vertex="1">
          <mxGeometry x="575" y="320" width="10" height="10" as="geometry" />
        </mxCell>
        <mxCell id="Dp8rsfMs7h5FS1OS1o7N-75" value="" style="rounded=0;whiteSpace=wrap;html=1;" parent="1" vertex="1">
          <mxGeometry x="620" y="360" width="20" height="10" as="geometry" />
        </mxCell>
        <mxCell id="Dp8rsfMs7h5FS1OS1o7N-78" value="" style="ellipse;whiteSpace=wrap;html=1;align=center;aspect=fixed;fillColor=none;strokeColor=none;resizable=0;perimeter=centerPerimeter;rotatable=0;allowArrows=0;points=[];outlineConnect=1;" parent="1" vertex="1">
          <mxGeometry x="675" y="450" width="10" height="10" as="geometry" />
        </mxCell>
        <mxCell id="Dp8rsfMs7h5FS1OS1o7N-79" value="" style="rounded=0;whiteSpace=wrap;html=1;" parent="1" vertex="1">
          <mxGeometry x="520" y="320" width="10" height="20" as="geometry" />
        </mxCell>
        <mxCell id="Dp8rsfMs7h5FS1OS1o7N-81" value="" style="rounded=0;orthogonalLoop=1;jettySize=auto;html=1;endArrow=halfCircle;endFill=0;endSize=6;strokeWidth=1;sketch=0;exitX=0;exitY=0.5;exitDx=0;exitDy=0;" parent="1" source="Dp8rsfMs7h5FS1OS1o7N-75" edge="1">
          <mxGeometry relative="1" as="geometry">
            <mxPoint x="670" y="455" as="sourcePoint" />
            <mxPoint x="580" y="370" as="targetPoint" />
          </mxGeometry>
        </mxCell>
        <mxCell id="Dp8rsfMs7h5FS1OS1o7N-82" value="" style="rounded=0;orthogonalLoop=1;jettySize=auto;html=1;endArrow=oval;endFill=0;sketch=0;sourcePerimeterSpacing=0;targetPerimeterSpacing=0;endSize=10;exitX=0.25;exitY=1;exitDx=0;exitDy=0;" parent="1" source="Dp8rsfMs7h5FS1OS1o7N-79" edge="1">
          <mxGeometry relative="1" as="geometry">
            <mxPoint x="630" y="455" as="sourcePoint" />
            <mxPoint x="580" y="370" as="targetPoint" />
            <Array as="points">
              <mxPoint x="525" y="370" />
            </Array>
          </mxGeometry>
        </mxCell>
        <mxCell id="Dp8rsfMs7h5FS1OS1o7N-83" value="" style="ellipse;whiteSpace=wrap;html=1;align=center;aspect=fixed;fillColor=none;strokeColor=none;resizable=0;perimeter=centerPerimeter;rotatable=0;allowArrows=0;points=[];outlineConnect=1;" parent="1" vertex="1">
          <mxGeometry x="645" y="450" width="10" height="10" as="geometry" />
        </mxCell>
        <mxCell id="Dp8rsfMs7h5FS1OS1o7N-90" value="" style="rounded=0;whiteSpace=wrap;html=1;" parent="1" vertex="1">
          <mxGeometry x="645" y="400" width="10" height="20" as="geometry" />
        </mxCell>
        <mxCell id="Dp8rsfMs7h5FS1OS1o7N-92" value="" style="rounded=0;whiteSpace=wrap;html=1;" parent="1" vertex="1">
          <mxGeometry x="645" y="510" width="10" height="20" as="geometry" />
        </mxCell>
        <mxCell id="Dp8rsfMs7h5FS1OS1o7N-97" value="" style="rounded=0;orthogonalLoop=1;jettySize=auto;html=1;endArrow=halfCircle;endFill=0;endSize=6;strokeWidth=1;sketch=0;exitX=0.5;exitY=1;exitDx=0;exitDy=0;" parent="1" source="Dp8rsfMs7h5FS1OS1o7N-90" target="Dp8rsfMs7h5FS1OS1o7N-99" edge="1">
          <mxGeometry relative="1" as="geometry">
            <mxPoint x="650" y="380" as="sourcePoint" />
          </mxGeometry>
        </mxCell>
        <mxCell id="Dp8rsfMs7h5FS1OS1o7N-98" value="" style="rounded=0;orthogonalLoop=1;jettySize=auto;html=1;endArrow=oval;endFill=0;sketch=0;sourcePerimeterSpacing=0;targetPerimeterSpacing=0;endSize=10;exitX=0.5;exitY=0;exitDx=0;exitDy=0;" parent="1" source="Dp8rsfMs7h5FS1OS1o7N-92" target="Dp8rsfMs7h5FS1OS1o7N-99" edge="1">
          <mxGeometry relative="1" as="geometry">
            <mxPoint x="560" y="495" as="sourcePoint" />
          </mxGeometry>
        </mxCell>
        <mxCell id="Dp8rsfMs7h5FS1OS1o7N-99" value="" style="ellipse;whiteSpace=wrap;html=1;align=center;aspect=fixed;fillColor=none;strokeColor=none;resizable=0;perimeter=centerPerimeter;rotatable=0;allowArrows=0;points=[];outlineConnect=1;" parent="1" vertex="1">
          <mxGeometry x="645" y="450" width="10" height="10" as="geometry" />
        </mxCell>
        <mxCell id="Dp8rsfMs7h5FS1OS1o7N-100" value="" style="rounded=0;orthogonalLoop=1;jettySize=auto;html=1;endArrow=halfCircle;endFill=0;endSize=6;strokeWidth=1;sketch=0;fontSize=12;curved=1;" parent="1" target="Dp8rsfMs7h5FS1OS1o7N-101" edge="1">
          <mxGeometry relative="1" as="geometry">
            <mxPoint x="650" y="530" as="sourcePoint" />
          </mxGeometry>
        </mxCell>
        <mxCell id="Dp8rsfMs7h5FS1OS1o7N-101" value="" style="ellipse;whiteSpace=wrap;html=1;align=center;aspect=fixed;fillColor=none;strokeColor=none;resizable=0;perimeter=centerPerimeter;rotatable=0;allowArrows=0;points=[];outlineConnect=1;" parent="1" vertex="1">
          <mxGeometry x="645" y="640" width="10" height="10" as="geometry" />
        </mxCell>
        <mxCell id="4heEK3HVFqtr4iT8dvXH-1" value="Text" style="text;html=1;strokeColor=none;fillColor=none;align=center;verticalAlign=middle;whiteSpace=wrap;rounded=0;" vertex="1" parent="1">
          <mxGeometry x="630" y="260" width="60" height="30" as="geometry" />
        </mxCell>
        <mxCell id="4heEK3HVFqtr4iT8dvXH-2" value="Data" style="text;html=1;strokeColor=none;fillColor=none;align=center;verticalAlign=middle;whiteSpace=wrap;rounded=0;" vertex="1" parent="1">
          <mxGeometry x="51" y="60" width="60" height="30" as="geometry" />
        </mxCell>
        <mxCell id="4heEK3HVFqtr4iT8dvXH-4" value="Data" style="text;html=1;strokeColor=none;fillColor=none;align=center;verticalAlign=middle;whiteSpace=wrap;rounded=0;" vertex="1" parent="1">
          <mxGeometry x="235" y="160" width="60" height="30" as="geometry" />
        </mxCell>
        <mxCell id="4heEK3HVFqtr4iT8dvXH-5" value="Train Data" style="text;html=1;strokeColor=none;fillColor=none;align=center;verticalAlign=middle;whiteSpace=wrap;rounded=0;" vertex="1" parent="1">
          <mxGeometry x="450" y="150" width="60" height="30" as="geometry" />
        </mxCell>
        <mxCell id="4heEK3HVFqtr4iT8dvXH-7" value="Test Data" style="text;html=1;strokeColor=none;fillColor=none;align=center;verticalAlign=middle;whiteSpace=wrap;rounded=0;" vertex="1" parent="1">
          <mxGeometry x="610" y="150" width="60" height="30" as="geometry" />
        </mxCell>
        <mxCell id="4heEK3HVFqtr4iT8dvXH-8" value="Cleaned Data" style="text;html=1;strokeColor=none;fillColor=none;align=center;verticalAlign=middle;whiteSpace=wrap;rounded=0;" vertex="1" parent="1">
          <mxGeometry x="480" y="380" width="60" height="30" as="geometry" />
        </mxCell>
        <mxCell id="4heEK3HVFqtr4iT8dvXH-9" value="Prediction Results" style="text;html=1;strokeColor=none;fillColor=none;align=center;verticalAlign=middle;whiteSpace=wrap;rounded=0;" vertex="1" parent="1">
          <mxGeometry x="660" y="430" width="60" height="30" as="geometry" />
        </mxCell>
      </root>
    </mxGraphModel>
  </diagram>
</mxfile>
